<mxfile host="www.draw.io" modified="2020-01-02T10:51:14.893Z" agent="Mozilla/5.0 (Macintosh; Intel Mac OS X 10_14_0) AppleWebKit/537.36 (KHTML, like Gecko) Chrome/79.0.3945.88 Safari/537.36" etag="uGV9yHqbOWlaMWWvVS36" version="12.4.8" type="github">
  <diagram id="E50Uvqs_OU24zU56VTqu" name="Page-1">
    <mxGraphModel dx="1186" dy="741" grid="1" gridSize="10" guides="1" tooltips="1" connect="1" arrows="1" fold="1" page="1" pageScale="1" pageWidth="827" pageHeight="1169" math="0" shadow="0">
      <root>
        <mxCell id="0"/>
        <mxCell id="1" parent="0"/>
        <mxCell id="iFKGYHwG-vbyxXW5R55S-1" value="AbstractExpression" style="swimlane;fontStyle=1;align=center;verticalAlign=top;childLayout=stackLayout;horizontal=1;startSize=26;horizontalStack=0;resizeParent=1;resizeParentMax=0;resizeLast=0;collapsible=1;marginBottom=0;fillColor=#F08E81;fontColor=#FFFFFF;" vertex="1" parent="1">
          <mxGeometry x="333" y="210" width="160" height="53" as="geometry"/>
        </mxCell>
        <mxCell id="iFKGYHwG-vbyxXW5R55S-3" value="" style="line;strokeWidth=1;fillColor=#F08E81;align=left;verticalAlign=middle;spacingTop=-1;spacingLeft=3;spacingRight=3;rotatable=0;labelPosition=right;points=[];portConstraint=eastwest;fontColor=#FFFFFF;" vertex="1" parent="iFKGYHwG-vbyxXW5R55S-1">
          <mxGeometry y="26" width="160" height="1" as="geometry"/>
        </mxCell>
        <mxCell id="iFKGYHwG-vbyxXW5R55S-4" value="+ intercept(Context)" style="text;strokeColor=none;fillColor=#F08E81;align=left;verticalAlign=top;spacingLeft=4;spacingRight=4;overflow=hidden;rotatable=0;points=[[0,0.5],[1,0.5]];portConstraint=eastwest;fontColor=#FFFFFF;" vertex="1" parent="iFKGYHwG-vbyxXW5R55S-1">
          <mxGeometry y="27" width="160" height="26" as="geometry"/>
        </mxCell>
        <mxCell id="iFKGYHwG-vbyxXW5R55S-19" value="" style="endArrow=diamondThin;endFill=0;endSize=24;html=1;fontColor=#000000;entryX=0.5;entryY=0;entryDx=0;entryDy=0;exitX=1;exitY=0.5;exitDx=0;exitDy=0;edgeStyle=orthogonalEdgeStyle;" edge="1" parent="iFKGYHwG-vbyxXW5R55S-1" source="iFKGYHwG-vbyxXW5R55S-4" target="iFKGYHwG-vbyxXW5R55S-1">
          <mxGeometry width="160" relative="1" as="geometry">
            <mxPoint x="247" y="-30" as="sourcePoint"/>
            <mxPoint x="407" y="-30" as="targetPoint"/>
            <Array as="points">
              <mxPoint x="257" y="40"/>
              <mxPoint x="257" y="-70"/>
              <mxPoint x="80" y="-70"/>
            </Array>
          </mxGeometry>
        </mxCell>
        <mxCell id="iFKGYHwG-vbyxXW5R55S-5" value="TerminalExpression" style="swimlane;fontStyle=1;align=center;verticalAlign=top;childLayout=stackLayout;horizontal=1;startSize=26;horizontalStack=0;resizeParent=1;resizeParentMax=0;resizeLast=0;collapsible=1;marginBottom=0;fillColor=#F08E81;fontColor=#FFFFFF;" vertex="1" parent="1">
          <mxGeometry x="190" y="380" width="160" height="53" as="geometry"/>
        </mxCell>
        <mxCell id="iFKGYHwG-vbyxXW5R55S-6" value="" style="line;strokeWidth=1;fillColor=#F08E81;align=left;verticalAlign=middle;spacingTop=-1;spacingLeft=3;spacingRight=3;rotatable=0;labelPosition=right;points=[];portConstraint=eastwest;fontColor=#FFFFFF;" vertex="1" parent="iFKGYHwG-vbyxXW5R55S-5">
          <mxGeometry y="26" width="160" height="1" as="geometry"/>
        </mxCell>
        <mxCell id="iFKGYHwG-vbyxXW5R55S-7" value="+ intercept(Context)" style="text;strokeColor=none;fillColor=#F08E81;align=left;verticalAlign=top;spacingLeft=4;spacingRight=4;overflow=hidden;rotatable=0;points=[[0,0.5],[1,0.5]];portConstraint=eastwest;fontColor=#FFFFFF;" vertex="1" parent="iFKGYHwG-vbyxXW5R55S-5">
          <mxGeometry y="27" width="160" height="26" as="geometry"/>
        </mxCell>
        <mxCell id="iFKGYHwG-vbyxXW5R55S-9" value="NormalExpression" style="swimlane;fontStyle=1;align=center;verticalAlign=top;childLayout=stackLayout;horizontal=1;startSize=26;horizontalStack=0;resizeParent=1;resizeParentMax=0;resizeLast=0;collapsible=1;marginBottom=0;fillColor=#F08E81;fontColor=#FFFFFF;" vertex="1" parent="1">
          <mxGeometry x="493" y="380" width="160" height="53" as="geometry"/>
        </mxCell>
        <mxCell id="iFKGYHwG-vbyxXW5R55S-10" value="" style="line;strokeWidth=1;fillColor=#F08E81;align=left;verticalAlign=middle;spacingTop=-1;spacingLeft=3;spacingRight=3;rotatable=0;labelPosition=right;points=[];portConstraint=eastwest;fontColor=#FFFFFF;" vertex="1" parent="iFKGYHwG-vbyxXW5R55S-9">
          <mxGeometry y="26" width="160" height="1" as="geometry"/>
        </mxCell>
        <mxCell id="iFKGYHwG-vbyxXW5R55S-11" value="+ intercept(Context)" style="text;strokeColor=none;fillColor=#F08E81;align=left;verticalAlign=top;spacingLeft=4;spacingRight=4;overflow=hidden;rotatable=0;points=[[0,0.5],[1,0.5]];portConstraint=eastwest;fontColor=#FFFFFF;" vertex="1" parent="iFKGYHwG-vbyxXW5R55S-9">
          <mxGeometry y="27" width="160" height="26" as="geometry"/>
        </mxCell>
        <mxCell id="iFKGYHwG-vbyxXW5R55S-15" value="Context" style="html=1;fillColor=#F08E81;fontColor=#FFFFFF;" vertex="1" parent="1">
          <mxGeometry x="110" y="110" width="110" height="50" as="geometry"/>
        </mxCell>
        <mxCell id="iFKGYHwG-vbyxXW5R55S-16" value="Use" style="endArrow=open;endSize=12;dashed=1;html=1;fontColor=#000000;entryX=0.5;entryY=1;entryDx=0;entryDy=0;exitX=0;exitY=0.5;exitDx=0;exitDy=0;edgeStyle=orthogonalEdgeStyle;" edge="1" parent="1" source="iFKGYHwG-vbyxXW5R55S-1" target="iFKGYHwG-vbyxXW5R55S-15">
          <mxGeometry width="160" relative="1" as="geometry">
            <mxPoint x="-30" y="260" as="sourcePoint"/>
            <mxPoint x="130" y="260" as="targetPoint"/>
          </mxGeometry>
        </mxCell>
        <mxCell id="iFKGYHwG-vbyxXW5R55S-17" value="Extends" style="endArrow=block;endSize=16;endFill=0;html=1;fontColor=#000000;entryX=0.5;entryY=1;entryDx=0;entryDy=0;exitX=0.5;exitY=0;exitDx=0;exitDy=0;edgeStyle=orthogonalEdgeStyle;" edge="1" parent="1" source="iFKGYHwG-vbyxXW5R55S-5" target="iFKGYHwG-vbyxXW5R55S-1">
          <mxGeometry width="160" relative="1" as="geometry">
            <mxPoint x="-10" y="400" as="sourcePoint"/>
            <mxPoint x="150" y="400" as="targetPoint"/>
          </mxGeometry>
        </mxCell>
        <mxCell id="iFKGYHwG-vbyxXW5R55S-18" value="Extends" style="endArrow=block;endSize=16;endFill=0;html=1;fontColor=#000000;entryX=0.5;entryY=1;entryDx=0;entryDy=0;exitX=0.5;exitY=0;exitDx=0;exitDy=0;edgeStyle=orthogonalEdgeStyle;" edge="1" parent="1" source="iFKGYHwG-vbyxXW5R55S-9" target="iFKGYHwG-vbyxXW5R55S-1">
          <mxGeometry width="160" relative="1" as="geometry">
            <mxPoint x="150" y="560" as="sourcePoint"/>
            <mxPoint x="310" y="560" as="targetPoint"/>
          </mxGeometry>
        </mxCell>
      </root>
    </mxGraphModel>
  </diagram>
</mxfile>
